<mxfile host="app.diagrams.net" agent="Mozilla/5.0 (Windows NT 10.0; Win64; x64) AppleWebKit/537.36 (KHTML, like Gecko) Chrome/131.0.0.0 Safari/537.36" version="24.8.6">
  <diagram name="Page-1" id="5IdoUOruhBS4aBm9Hy9P">
    <mxGraphModel dx="1050" dy="625" grid="1" gridSize="10" guides="1" tooltips="1" connect="1" arrows="1" fold="1" page="1" pageScale="1" pageWidth="850" pageHeight="1100" math="0" shadow="0">
      <root>
        <mxCell id="0" />
        <mxCell id="1" parent="0" />
        <mxCell id="ygAq57840rJ-J-UfhAij-3" value="" style="edgeStyle=orthogonalEdgeStyle;rounded=0;orthogonalLoop=1;jettySize=auto;html=1;" parent="1" source="ygAq57840rJ-J-UfhAij-1" target="ygAq57840rJ-J-UfhAij-2" edge="1">
          <mxGeometry relative="1" as="geometry" />
        </mxCell>
        <mxCell id="ygAq57840rJ-J-UfhAij-1" value="Start" style="ellipse;whiteSpace=wrap;html=1;" parent="1" vertex="1">
          <mxGeometry x="365" y="20" width="120" height="80" as="geometry" />
        </mxCell>
        <mxCell id="ygAq57840rJ-J-UfhAij-5" value="" style="edgeStyle=orthogonalEdgeStyle;rounded=0;orthogonalLoop=1;jettySize=auto;html=1;" parent="1" source="ygAq57840rJ-J-UfhAij-2" target="ygAq57840rJ-J-UfhAij-4" edge="1">
          <mxGeometry relative="1" as="geometry" />
        </mxCell>
        <mxCell id="ygAq57840rJ-J-UfhAij-2" value="Nhập điểm" style="shape=parallelogram;perimeter=parallelogramPerimeter;whiteSpace=wrap;html=1;fixedSize=1;" parent="1" vertex="1">
          <mxGeometry x="365" y="190" width="120" height="60" as="geometry" />
        </mxCell>
        <mxCell id="ygAq57840rJ-J-UfhAij-7" value="" style="edgeStyle=orthogonalEdgeStyle;rounded=0;orthogonalLoop=1;jettySize=auto;html=1;" parent="1" source="ygAq57840rJ-J-UfhAij-4" target="ygAq57840rJ-J-UfhAij-6" edge="1">
          <mxGeometry relative="1" as="geometry" />
        </mxCell>
        <mxCell id="ygAq57840rJ-J-UfhAij-15" value="" style="edgeStyle=orthogonalEdgeStyle;rounded=0;orthogonalLoop=1;jettySize=auto;html=1;" parent="1" source="ygAq57840rJ-J-UfhAij-4" target="ygAq57840rJ-J-UfhAij-14" edge="1">
          <mxGeometry relative="1" as="geometry" />
        </mxCell>
        <mxCell id="ygAq57840rJ-J-UfhAij-4" value="diểm &amp;lt; 4" style="rhombus;whiteSpace=wrap;html=1;" parent="1" vertex="1">
          <mxGeometry x="385" y="320" width="80" height="80" as="geometry" />
        </mxCell>
        <mxCell id="ygAq57840rJ-J-UfhAij-9" value="" style="edgeStyle=orthogonalEdgeStyle;rounded=0;orthogonalLoop=1;jettySize=auto;html=1;" parent="1" source="ygAq57840rJ-J-UfhAij-6" target="ygAq57840rJ-J-UfhAij-8" edge="1">
          <mxGeometry relative="1" as="geometry" />
        </mxCell>
        <mxCell id="ygAq57840rJ-J-UfhAij-17" value="" style="edgeStyle=orthogonalEdgeStyle;rounded=0;orthogonalLoop=1;jettySize=auto;html=1;" parent="1" source="ygAq57840rJ-J-UfhAij-6" target="ygAq57840rJ-J-UfhAij-16" edge="1">
          <mxGeometry relative="1" as="geometry" />
        </mxCell>
        <mxCell id="ygAq57840rJ-J-UfhAij-6" value="4&amp;lt;=diểm &amp;lt;=6" style="rhombus;whiteSpace=wrap;html=1;" parent="1" vertex="1">
          <mxGeometry x="385" y="480" width="80" height="80" as="geometry" />
        </mxCell>
        <mxCell id="ygAq57840rJ-J-UfhAij-11" value="" style="edgeStyle=orthogonalEdgeStyle;rounded=0;orthogonalLoop=1;jettySize=auto;html=1;" parent="1" source="ygAq57840rJ-J-UfhAij-8" target="ygAq57840rJ-J-UfhAij-10" edge="1">
          <mxGeometry relative="1" as="geometry" />
        </mxCell>
        <mxCell id="ygAq57840rJ-J-UfhAij-19" value="" style="edgeStyle=orthogonalEdgeStyle;rounded=0;orthogonalLoop=1;jettySize=auto;html=1;" parent="1" source="ygAq57840rJ-J-UfhAij-8" target="ygAq57840rJ-J-UfhAij-18" edge="1">
          <mxGeometry relative="1" as="geometry" />
        </mxCell>
        <mxCell id="ygAq57840rJ-J-UfhAij-8" value="6&amp;lt;điểm&amp;lt;=8" style="rhombus;whiteSpace=wrap;html=1;" parent="1" vertex="1">
          <mxGeometry x="385" y="640" width="80" height="80" as="geometry" />
        </mxCell>
        <mxCell id="ygAq57840rJ-J-UfhAij-13" value="" style="edgeStyle=orthogonalEdgeStyle;rounded=0;orthogonalLoop=1;jettySize=auto;html=1;" parent="1" source="ygAq57840rJ-J-UfhAij-10" target="ygAq57840rJ-J-UfhAij-12" edge="1">
          <mxGeometry relative="1" as="geometry" />
        </mxCell>
        <mxCell id="ygAq57840rJ-J-UfhAij-21" value="" style="edgeStyle=orthogonalEdgeStyle;rounded=0;orthogonalLoop=1;jettySize=auto;html=1;" parent="1" source="ygAq57840rJ-J-UfhAij-10" target="ygAq57840rJ-J-UfhAij-20" edge="1">
          <mxGeometry relative="1" as="geometry" />
        </mxCell>
        <mxCell id="ygAq57840rJ-J-UfhAij-10" value="8&amp;lt;điểm&amp;lt;=9" style="rhombus;whiteSpace=wrap;html=1;" parent="1" vertex="1">
          <mxGeometry x="385" y="800" width="80" height="80" as="geometry" />
        </mxCell>
        <mxCell id="ygAq57840rJ-J-UfhAij-23" value="" style="edgeStyle=orthogonalEdgeStyle;rounded=0;orthogonalLoop=1;jettySize=auto;html=1;" parent="1" source="ygAq57840rJ-J-UfhAij-12" target="ygAq57840rJ-J-UfhAij-22" edge="1">
          <mxGeometry relative="1" as="geometry" />
        </mxCell>
        <mxCell id="ygAq57840rJ-J-UfhAij-12" value="điểm = 10" style="rhombus;whiteSpace=wrap;html=1;" parent="1" vertex="1">
          <mxGeometry x="385" y="960" width="80" height="80" as="geometry" />
        </mxCell>
        <mxCell id="ygAq57840rJ-J-UfhAij-25" value="" style="edgeStyle=orthogonalEdgeStyle;rounded=0;orthogonalLoop=1;jettySize=auto;html=1;" parent="1" source="ygAq57840rJ-J-UfhAij-14" target="ygAq57840rJ-J-UfhAij-24" edge="1">
          <mxGeometry relative="1" as="geometry" />
        </mxCell>
        <mxCell id="ygAq57840rJ-J-UfhAij-14" value="Không đạt" style="shape=parallelogram;perimeter=parallelogramPerimeter;whiteSpace=wrap;html=1;fixedSize=1;" parent="1" vertex="1">
          <mxGeometry x="205" y="330" width="120" height="60" as="geometry" />
        </mxCell>
        <mxCell id="ygAq57840rJ-J-UfhAij-28" value="" style="edgeStyle=orthogonalEdgeStyle;rounded=0;orthogonalLoop=1;jettySize=auto;html=1;" parent="1" source="ygAq57840rJ-J-UfhAij-16" target="ygAq57840rJ-J-UfhAij-24" edge="1">
          <mxGeometry relative="1" as="geometry" />
        </mxCell>
        <mxCell id="ygAq57840rJ-J-UfhAij-16" value="trung bình" style="shape=parallelogram;perimeter=parallelogramPerimeter;whiteSpace=wrap;html=1;fixedSize=1;" parent="1" vertex="1">
          <mxGeometry x="205" y="490" width="120" height="60" as="geometry" />
        </mxCell>
        <mxCell id="ygAq57840rJ-J-UfhAij-29" value="" style="edgeStyle=orthogonalEdgeStyle;rounded=0;orthogonalLoop=1;jettySize=auto;html=1;" parent="1" source="ygAq57840rJ-J-UfhAij-18" target="ygAq57840rJ-J-UfhAij-24" edge="1">
          <mxGeometry relative="1" as="geometry" />
        </mxCell>
        <mxCell id="ygAq57840rJ-J-UfhAij-18" value="khá" style="shape=parallelogram;perimeter=parallelogramPerimeter;whiteSpace=wrap;html=1;fixedSize=1;" parent="1" vertex="1">
          <mxGeometry x="205" y="650" width="120" height="60" as="geometry" />
        </mxCell>
        <mxCell id="ygAq57840rJ-J-UfhAij-30" value="" style="edgeStyle=orthogonalEdgeStyle;rounded=0;orthogonalLoop=1;jettySize=auto;html=1;" parent="1" source="ygAq57840rJ-J-UfhAij-20" target="ygAq57840rJ-J-UfhAij-24" edge="1">
          <mxGeometry relative="1" as="geometry" />
        </mxCell>
        <mxCell id="ygAq57840rJ-J-UfhAij-20" value="Giỏi" style="shape=parallelogram;perimeter=parallelogramPerimeter;whiteSpace=wrap;html=1;fixedSize=1;" parent="1" vertex="1">
          <mxGeometry x="205" y="810" width="120" height="60" as="geometry" />
        </mxCell>
        <mxCell id="ygAq57840rJ-J-UfhAij-31" value="" style="edgeStyle=orthogonalEdgeStyle;rounded=0;orthogonalLoop=1;jettySize=auto;html=1;" parent="1" source="ygAq57840rJ-J-UfhAij-22" target="ygAq57840rJ-J-UfhAij-24" edge="1">
          <mxGeometry relative="1" as="geometry" />
        </mxCell>
        <mxCell id="ygAq57840rJ-J-UfhAij-22" value="Xuất sắc" style="shape=parallelogram;perimeter=parallelogramPerimeter;whiteSpace=wrap;html=1;fixedSize=1;" parent="1" vertex="1">
          <mxGeometry x="205" y="970" width="120" height="60" as="geometry" />
        </mxCell>
        <mxCell id="ygAq57840rJ-J-UfhAij-24" value="End" style="ellipse;whiteSpace=wrap;html=1;" parent="1" vertex="1">
          <mxGeometry y="640" width="80" height="80" as="geometry" />
        </mxCell>
        <mxCell id="y8NNSswjQeTuBn-jn_HS-1" value="Đ" style="text;html=1;align=center;verticalAlign=middle;resizable=0;points=[];autosize=1;strokeColor=none;fillColor=none;" vertex="1" parent="1">
          <mxGeometry x="345" y="328" width="30" height="30" as="geometry" />
        </mxCell>
        <mxCell id="y8NNSswjQeTuBn-jn_HS-2" value="Đ" style="text;html=1;align=center;verticalAlign=middle;resizable=0;points=[];autosize=1;strokeColor=none;fillColor=none;" vertex="1" parent="1">
          <mxGeometry x="345" y="488" width="30" height="30" as="geometry" />
        </mxCell>
        <mxCell id="y8NNSswjQeTuBn-jn_HS-3" value="Đ" style="text;html=1;align=center;verticalAlign=middle;resizable=0;points=[];autosize=1;strokeColor=none;fillColor=none;" vertex="1" parent="1">
          <mxGeometry x="345" y="648" width="30" height="30" as="geometry" />
        </mxCell>
        <mxCell id="y8NNSswjQeTuBn-jn_HS-4" value="Đ" style="text;html=1;align=center;verticalAlign=middle;resizable=0;points=[];autosize=1;strokeColor=none;fillColor=none;" vertex="1" parent="1">
          <mxGeometry x="345" y="818" width="30" height="30" as="geometry" />
        </mxCell>
        <mxCell id="y8NNSswjQeTuBn-jn_HS-5" value="Đ" style="text;html=1;align=center;verticalAlign=middle;resizable=0;points=[];autosize=1;strokeColor=none;fillColor=none;" vertex="1" parent="1">
          <mxGeometry x="345" y="978" width="30" height="30" as="geometry" />
        </mxCell>
        <mxCell id="y8NNSswjQeTuBn-jn_HS-6" value="S" style="text;html=1;align=center;verticalAlign=middle;resizable=0;points=[];autosize=1;strokeColor=none;fillColor=none;" vertex="1" parent="1">
          <mxGeometry x="425" y="428" width="30" height="30" as="geometry" />
        </mxCell>
        <mxCell id="y8NNSswjQeTuBn-jn_HS-7" value="S" style="text;html=1;align=center;verticalAlign=middle;resizable=0;points=[];autosize=1;strokeColor=none;fillColor=none;" vertex="1" parent="1">
          <mxGeometry x="435" y="588" width="30" height="30" as="geometry" />
        </mxCell>
        <mxCell id="y8NNSswjQeTuBn-jn_HS-8" value="S" style="text;html=1;align=center;verticalAlign=middle;resizable=0;points=[];autosize=1;strokeColor=none;fillColor=none;" vertex="1" parent="1">
          <mxGeometry x="435" y="748" width="30" height="30" as="geometry" />
        </mxCell>
        <mxCell id="y8NNSswjQeTuBn-jn_HS-9" value="S" style="text;html=1;align=center;verticalAlign=middle;resizable=0;points=[];autosize=1;strokeColor=none;fillColor=none;" vertex="1" parent="1">
          <mxGeometry x="425" y="908" width="30" height="30" as="geometry" />
        </mxCell>
      </root>
    </mxGraphModel>
  </diagram>
</mxfile>
